<mxfile host="app.diagrams.net" modified="2023-04-11T08:34:59.533Z" agent="Mozilla/5.0 (Windows NT 10.0; Win64; x64) AppleWebKit/537.36 (KHTML, like Gecko) Chrome/111.0.0.0 Safari/537.36" etag="7vUCNCyvOeBrAFB4h2AY" version="21.1.5" type="github">
  <diagram name="Page-1" id="wMTLCXlPNrGBsUAhOkH2">
    <mxGraphModel dx="1076" dy="634" grid="1" gridSize="10" guides="1" tooltips="1" connect="1" arrows="1" fold="1" page="1" pageScale="1" pageWidth="827" pageHeight="1169" math="0" shadow="0">
      <root>
        <mxCell id="0" />
        <mxCell id="1" parent="0" />
        <mxCell id="4z9svNgHc_a4hs06aCFs-1" value="Expense Capture" style="rounded=0;whiteSpace=wrap;html=1;" vertex="1" parent="1">
          <mxGeometry x="294" y="80" width="120" height="60" as="geometry" />
        </mxCell>
        <mxCell id="4z9svNgHc_a4hs06aCFs-2" value="Emp" style="shape=umlActor;verticalLabelPosition=bottom;verticalAlign=middle;html=1;outlineConnect=0;" vertex="1" parent="1">
          <mxGeometry x="88" y="66" width="30" height="50" as="geometry" />
        </mxCell>
        <mxCell id="4z9svNgHc_a4hs06aCFs-3" value="" style="endArrow=none;dashed=1;html=1;rounded=0;entryX=0.5;entryY=1;entryDx=0;entryDy=0;" edge="1" parent="1" target="4z9svNgHc_a4hs06aCFs-1">
          <mxGeometry width="50" height="50" relative="1" as="geometry">
            <mxPoint x="360" y="640" as="sourcePoint" />
            <mxPoint x="440" y="300" as="targetPoint" />
          </mxGeometry>
        </mxCell>
        <mxCell id="4z9svNgHc_a4hs06aCFs-4" value="" style="endArrow=none;dashed=1;html=1;rounded=0;" edge="1" parent="1">
          <mxGeometry width="50" height="50" relative="1" as="geometry">
            <mxPoint x="102" y="641" as="sourcePoint" />
            <mxPoint x="102" y="151" as="targetPoint" />
          </mxGeometry>
        </mxCell>
        <mxCell id="4z9svNgHc_a4hs06aCFs-5" value="" style="endArrow=classic;html=1;rounded=0;dashed=1;" edge="1" parent="1">
          <mxGeometry width="50" height="50" relative="1" as="geometry">
            <mxPoint x="101" y="190" as="sourcePoint" />
            <mxPoint x="351" y="190" as="targetPoint" />
          </mxGeometry>
        </mxCell>
        <mxCell id="4z9svNgHc_a4hs06aCFs-6" value="Upload bills(OCR/Manual)" style="text;html=1;strokeColor=none;fillColor=none;align=center;verticalAlign=middle;whiteSpace=wrap;rounded=0;" vertex="1" parent="1">
          <mxGeometry x="160" y="159" width="120" height="30" as="geometry" />
        </mxCell>
        <mxCell id="4z9svNgHc_a4hs06aCFs-10" value="" style="endArrow=none;html=1;rounded=0;endFill=0;startArrow=classic;startFill=1;" edge="1" parent="1">
          <mxGeometry width="50" height="50" relative="1" as="geometry">
            <mxPoint x="102" y="255" as="sourcePoint" />
            <mxPoint x="352" y="255" as="targetPoint" />
          </mxGeometry>
        </mxCell>
        <mxCell id="4z9svNgHc_a4hs06aCFs-11" value="Input form fields" style="text;html=1;strokeColor=none;fillColor=none;align=center;verticalAlign=middle;whiteSpace=wrap;rounded=0;" vertex="1" parent="1">
          <mxGeometry x="161" y="224" width="120" height="30" as="geometry" />
        </mxCell>
        <mxCell id="4z9svNgHc_a4hs06aCFs-12" value="" style="endArrow=classic;html=1;rounded=0;dashed=1;" edge="1" parent="1">
          <mxGeometry width="50" height="50" relative="1" as="geometry">
            <mxPoint x="104" y="326" as="sourcePoint" />
            <mxPoint x="354" y="326" as="targetPoint" />
          </mxGeometry>
        </mxCell>
        <mxCell id="4z9svNgHc_a4hs06aCFs-13" value="Expense Details" style="text;html=1;strokeColor=none;fillColor=none;align=center;verticalAlign=middle;whiteSpace=wrap;rounded=0;" vertex="1" parent="1">
          <mxGeometry x="163" y="295" width="120" height="30" as="geometry" />
        </mxCell>
        <mxCell id="4z9svNgHc_a4hs06aCFs-14" value="" style="endArrow=none;html=1;rounded=0;endFill=0;startArrow=classic;startFill=1;dashed=1;" edge="1" parent="1">
          <mxGeometry width="50" height="50" relative="1" as="geometry">
            <mxPoint x="105" y="406" as="sourcePoint" />
            <mxPoint x="355" y="406" as="targetPoint" />
          </mxGeometry>
        </mxCell>
        <mxCell id="4z9svNgHc_a4hs06aCFs-15" value="Form successfully submitted" style="text;html=1;strokeColor=none;fillColor=none;align=center;verticalAlign=middle;whiteSpace=wrap;rounded=0;" vertex="1" parent="1">
          <mxGeometry x="164" y="375" width="120" height="30" as="geometry" />
        </mxCell>
      </root>
    </mxGraphModel>
  </diagram>
</mxfile>
